<?xml version="1.0" encoding="UTF-8" standalone="no"?><!DOCTYPE svg PUBLIC "-//W3C//DTD SVG 1.1//EN" "http://www.w3.org/Graphics/SVG/1.1/DTD/svg11.dtd"><svg width="100%" height="100%" viewBox="0 0 410 417" version="1.1" xmlns="http://www.w3.org/2000/svg" style="fill-rule:evenodd;clip-rule:evenodd;stroke-linejoin:round;stroke-miterlimit:2;"><path d="M409.974,389.816c0,-6.975 -2.77,-13.664 -7.703,-18.596c-4.932,-4.933 -11.621,-7.704 -18.597,-7.704c-73.993,0 -283.38,0 -357.374,0c-6.975,0 -13.665,2.771 -18.597,7.704c-4.932,4.932 -7.703,11.621 -7.703,18.596c0,0.004 0,0.008 0,0.012c-0,6.975 2.771,13.665 7.703,18.597c4.932,4.932 11.622,7.703 18.597,7.703c73.994,-0 283.381,-0 357.374,-0c6.976,-0 13.665,-2.771 18.597,-7.703c4.933,-4.932 7.703,-11.622 7.703,-18.597c0,-0.004 0,-0.008 0,-0.012Zm-232.115,-145.488l-72.797,-71.491c-3.397,-3.337 -7.968,-5.206 -12.729,-5.206l-15.084,0c-7.378,0 -14.023,4.462 -16.815,11.291c-2.793,6.829 -1.178,14.668 4.086,19.838c41.021,40.285 109.949,107.977 132.829,130.446c4.241,4.165 11.036,4.165 15.277,0c22.879,-22.469 91.807,-90.161 132.829,-130.446c5.264,-5.17 6.878,-13.009 4.086,-19.838c-2.793,-6.829 -9.438,-11.291 -16.815,-11.291c-5.788,0 -11.085,0 -15.085,0c-4.761,0 -9.332,1.869 -12.729,5.206l-72.797,71.491l0,-227.109c0,-4.567 -1.814,-8.946 -5.043,-12.176c-3.229,-3.229 -7.609,-5.043 -12.176,-5.043c-6.328,0 -13.49,0 -19.817,0c-4.567,-0 -8.947,1.814 -12.176,5.043c-3.23,3.23 -5.044,7.609 -5.044,12.176l0,227.109Z"/></svg>