<?xml version="1.0" encoding="UTF-8" standalone="no"?><!DOCTYPE svg PUBLIC "-//W3C//DTD SVG 1.1//EN" "http://www.w3.org/Graphics/SVG/1.1/DTD/svg11.dtd"><svg width="100%" height="100%" viewBox="0 0 410 417" version="1.1" style="fill-rule:evenodd;clip-rule:evenodd;stroke-linejoin:round;stroke-miterlimit:2;"><path d="M409.974,389.816c0,-6.975 -2.77,-13.664 -7.703,-18.596c-4.932,-4.933 -11.621,-7.704 -18.597,-7.704c-73.993,0 -283.38,0 -357.374,0c-6.975,0 -13.665,2.771 -18.597,7.704c-4.932,4.932 -7.703,11.621 -7.703,18.596c-0,0.004 -0,0.008 -0,0.012c-0,6.975 2.771,13.665 7.703,18.597c4.932,4.932 11.622,7.703 18.597,7.703c73.994,-0 283.381,-0 357.374,-0c6.976,-0 13.665,-2.771 18.597,-7.703c4.933,-4.932 7.703,-11.622 7.703,-18.597c0,-0.004 0,-0.008 0,-0.012Z"/><path d="M317.641,169.076c-4.761,0 -9.332,-1.869 -12.729,-5.205c-21.352,-20.969 -99.925,-98.133 -99.925,-98.133c0,0 -78.572,77.164 -99.925,98.133c-3.397,3.336 -7.968,5.205 -12.729,5.205l-15.084,0c-7.378,0 -14.023,-4.462 -16.815,-11.29c-2.793,-6.829 -1.178,-14.669 4.086,-19.838c41.021,-40.286 109.949,-107.977 132.829,-130.447c4.241,-4.164 11.036,-4.164 15.277,0c22.879,22.47 91.807,90.161 132.829,130.447c5.264,5.169 6.878,13.009 4.086,19.838c-2.793,6.828 -9.438,11.29 -16.815,11.29c-5.788,0 -11.085,0 -15.085,0Z"/><path d="M232.115,319.488c0,4.567 -1.814,8.947 -5.043,12.176c-3.229,3.229 -7.609,5.044 -12.176,5.044c-6.328,-0 -13.49,-0 -19.817,-0c-4.567,-0 -8.947,-1.815 -12.176,-5.044c-3.23,-3.229 -5.044,-7.609 -5.044,-12.176c0,-60.258 0,-258.018 0,-258.018l54.256,-0l0,258.018Z"/></svg>